<mxfile host="app.diagrams.net" agent="Mozilla/5.0 (Windows NT 10.0; Win64; x64) AppleWebKit/537.36 (KHTML, like Gecko) Chrome/131.0.0.0 Safari/537.36" version="26.0.1" pages="2">
  <diagram id="R2lEEEUBdFMjLlhIrx00" name="Page-1">
    <mxGraphModel dx="1050" dy="522" grid="1" gridSize="10" guides="1" tooltips="1" connect="1" arrows="1" fold="1" page="1" pageScale="1" pageWidth="850" pageHeight="1100" math="0" shadow="0" extFonts="Permanent Marker^https://fonts.googleapis.com/css?family=Permanent+Marker">
      <root>
        <mxCell id="0" />
        <mxCell id="1" parent="0" />
        <mxCell id="xX9duPSloRxx_vfMI_G7-1" value="User" style="rounded=0;whiteSpace=wrap;html=1;" vertex="1" parent="1">
          <mxGeometry x="150" y="330" width="90" height="40" as="geometry" />
        </mxCell>
        <mxCell id="xX9duPSloRxx_vfMI_G7-2" value="id" style="ellipse;whiteSpace=wrap;html=1;" vertex="1" parent="1">
          <mxGeometry y="270" width="80" height="50" as="geometry" />
        </mxCell>
        <mxCell id="xX9duPSloRxx_vfMI_G7-3" value="address" style="ellipse;whiteSpace=wrap;html=1;" vertex="1" parent="1">
          <mxGeometry x="280" y="200" width="80" height="50" as="geometry" />
        </mxCell>
        <mxCell id="xX9duPSloRxx_vfMI_G7-4" value="role" style="ellipse;whiteSpace=wrap;html=1;" vertex="1" parent="1">
          <mxGeometry x="230" y="150" width="80" height="50" as="geometry" />
        </mxCell>
        <mxCell id="xX9duPSloRxx_vfMI_G7-5" value="password" style="ellipse;whiteSpace=wrap;html=1;" vertex="1" parent="1">
          <mxGeometry x="140" y="150" width="80" height="50" as="geometry" />
        </mxCell>
        <mxCell id="xX9duPSloRxx_vfMI_G7-6" value="email" style="ellipse;whiteSpace=wrap;html=1;" vertex="1" parent="1">
          <mxGeometry x="50" y="160" width="80" height="50" as="geometry" />
        </mxCell>
        <mxCell id="xX9duPSloRxx_vfMI_G7-7" value="name" style="ellipse;whiteSpace=wrap;html=1;" vertex="1" parent="1">
          <mxGeometry y="210" width="80" height="50" as="geometry" />
        </mxCell>
        <mxCell id="xX9duPSloRxx_vfMI_G7-8" value="Gender" style="ellipse;whiteSpace=wrap;html=1;" vertex="1" parent="1">
          <mxGeometry x="290" y="260" width="80" height="50" as="geometry" />
        </mxCell>
        <mxCell id="xX9duPSloRxx_vfMI_G7-9" value="" style="endArrow=none;html=1;rounded=0;entryX=1.04;entryY=0.656;entryDx=0;entryDy=0;entryPerimeter=0;" edge="1" parent="1" target="xX9duPSloRxx_vfMI_G7-2">
          <mxGeometry width="50" height="50" relative="1" as="geometry">
            <mxPoint x="186" y="330" as="sourcePoint" />
            <mxPoint x="440" y="350" as="targetPoint" />
          </mxGeometry>
        </mxCell>
        <mxCell id="xX9duPSloRxx_vfMI_G7-10" value="" style="endArrow=none;html=1;rounded=0;entryX=1;entryY=1;entryDx=0;entryDy=0;" edge="1" parent="1" target="xX9duPSloRxx_vfMI_G7-6">
          <mxGeometry width="50" height="50" relative="1" as="geometry">
            <mxPoint x="190" y="330" as="sourcePoint" />
            <mxPoint x="117" y="200" as="targetPoint" />
          </mxGeometry>
        </mxCell>
        <mxCell id="xX9duPSloRxx_vfMI_G7-11" value="" style="endArrow=none;html=1;rounded=0;entryX=0.5;entryY=1;entryDx=0;entryDy=0;exitX=0.413;exitY=0.04;exitDx=0;exitDy=0;exitPerimeter=0;" edge="1" parent="1" source="xX9duPSloRxx_vfMI_G7-1" target="xX9duPSloRxx_vfMI_G7-5">
          <mxGeometry width="50" height="50" relative="1" as="geometry">
            <mxPoint x="290" y="270" as="sourcePoint" />
            <mxPoint x="187" y="245" as="targetPoint" />
          </mxGeometry>
        </mxCell>
        <mxCell id="xX9duPSloRxx_vfMI_G7-12" value="" style="endArrow=none;html=1;rounded=0;entryX=0.5;entryY=0;entryDx=0;entryDy=0;exitX=0.005;exitY=0.696;exitDx=0;exitDy=0;exitPerimeter=0;" edge="1" parent="1" source="xX9duPSloRxx_vfMI_G7-8" target="xX9duPSloRxx_vfMI_G7-1">
          <mxGeometry width="50" height="50" relative="1" as="geometry">
            <mxPoint x="290" y="355" as="sourcePoint" />
            <mxPoint x="187" y="330" as="targetPoint" />
          </mxGeometry>
        </mxCell>
        <mxCell id="xX9duPSloRxx_vfMI_G7-13" value="" style="endArrow=none;html=1;rounded=0;entryX=0.422;entryY=0.02;entryDx=0;entryDy=0;entryPerimeter=0;exitX=-0.02;exitY=0.696;exitDx=0;exitDy=0;exitPerimeter=0;" edge="1" parent="1" source="xX9duPSloRxx_vfMI_G7-3" target="xX9duPSloRxx_vfMI_G7-1">
          <mxGeometry width="50" height="50" relative="1" as="geometry">
            <mxPoint x="433" y="370" as="sourcePoint" />
            <mxPoint x="330" y="345" as="targetPoint" />
          </mxGeometry>
        </mxCell>
        <mxCell id="xX9duPSloRxx_vfMI_G7-15" value="" style="endArrow=none;html=1;rounded=0;entryX=0.25;entryY=1;entryDx=0;entryDy=0;entryPerimeter=0;exitX=0.413;exitY=0;exitDx=0;exitDy=0;exitPerimeter=0;" edge="1" parent="1" source="xX9duPSloRxx_vfMI_G7-1" target="xX9duPSloRxx_vfMI_G7-4">
          <mxGeometry width="50" height="50" relative="1" as="geometry">
            <mxPoint x="243" y="445" as="sourcePoint" />
            <mxPoint x="140" y="420" as="targetPoint" />
          </mxGeometry>
        </mxCell>
        <mxCell id="xX9duPSloRxx_vfMI_G7-16" value="" style="endArrow=none;html=1;rounded=0;entryX=1.005;entryY=0.688;entryDx=0;entryDy=0;entryPerimeter=0;" edge="1" parent="1" target="xX9duPSloRxx_vfMI_G7-7">
          <mxGeometry width="50" height="50" relative="1" as="geometry">
            <mxPoint x="190" y="330" as="sourcePoint" />
            <mxPoint x="190" y="420" as="targetPoint" />
          </mxGeometry>
        </mxCell>
        <mxCell id="xX9duPSloRxx_vfMI_G7-17" value="Noets" style="rounded=0;whiteSpace=wrap;html=1;" vertex="1" parent="1">
          <mxGeometry x="590" y="180" width="90" height="40" as="geometry" />
        </mxCell>
        <mxCell id="xX9duPSloRxx_vfMI_G7-18" value="id" style="ellipse;whiteSpace=wrap;html=1;" vertex="1" parent="1">
          <mxGeometry x="480" y="90" width="80" height="50" as="geometry" />
        </mxCell>
        <mxCell id="xX9duPSloRxx_vfMI_G7-20" value="user_id" style="ellipse;whiteSpace=wrap;html=1;" vertex="1" parent="1">
          <mxGeometry x="690" y="100" width="80" height="50" as="geometry" />
        </mxCell>
        <mxCell id="xX9duPSloRxx_vfMI_G7-21" value="date" style="ellipse;whiteSpace=wrap;html=1;" vertex="1" parent="1">
          <mxGeometry x="690" y="30" width="80" height="50" as="geometry" />
        </mxCell>
        <mxCell id="xX9duPSloRxx_vfMI_G7-22" value="title" style="ellipse;whiteSpace=wrap;html=1;" vertex="1" parent="1">
          <mxGeometry x="500" y="30" width="80" height="50" as="geometry" />
        </mxCell>
        <mxCell id="xX9duPSloRxx_vfMI_G7-23" value="content" style="ellipse;whiteSpace=wrap;html=1;" vertex="1" parent="1">
          <mxGeometry x="600" width="80" height="50" as="geometry" />
        </mxCell>
        <mxCell id="xX9duPSloRxx_vfMI_G7-24" value="" style="endArrow=none;html=1;rounded=0;entryX=-0.02;entryY=0.656;entryDx=0;entryDy=0;entryPerimeter=0;" edge="1" parent="1" target="xX9duPSloRxx_vfMI_G7-20">
          <mxGeometry width="50" height="50" relative="1" as="geometry">
            <mxPoint x="630" y="180" as="sourcePoint" />
            <mxPoint x="640" y="130" as="targetPoint" />
          </mxGeometry>
        </mxCell>
        <mxCell id="xX9duPSloRxx_vfMI_G7-25" value="" style="endArrow=none;html=1;rounded=0;entryX=0.405;entryY=1.072;entryDx=0;entryDy=0;entryPerimeter=0;" edge="1" parent="1" target="xX9duPSloRxx_vfMI_G7-23">
          <mxGeometry width="50" height="50" relative="1" as="geometry">
            <mxPoint x="632" y="180" as="sourcePoint" />
            <mxPoint x="778" y="173" as="targetPoint" />
          </mxGeometry>
        </mxCell>
        <mxCell id="xX9duPSloRxx_vfMI_G7-26" value="" style="endArrow=none;html=1;rounded=0;entryX=0.01;entryY=0.664;entryDx=0;entryDy=0;entryPerimeter=0;" edge="1" parent="1" target="xX9duPSloRxx_vfMI_G7-21">
          <mxGeometry width="50" height="50" relative="1" as="geometry">
            <mxPoint x="630" y="180" as="sourcePoint" />
            <mxPoint x="708" y="240" as="targetPoint" />
          </mxGeometry>
        </mxCell>
        <mxCell id="xX9duPSloRxx_vfMI_G7-27" value="" style="endArrow=none;html=1;rounded=0;exitX=0.975;exitY=0.696;exitDx=0;exitDy=0;exitPerimeter=0;" edge="1" parent="1" source="xX9duPSloRxx_vfMI_G7-18">
          <mxGeometry width="50" height="50" relative="1" as="geometry">
            <mxPoint x="402" y="297" as="sourcePoint" />
            <mxPoint x="630" y="180" as="targetPoint" />
          </mxGeometry>
        </mxCell>
        <mxCell id="xX9duPSloRxx_vfMI_G7-28" value="" style="endArrow=none;html=1;rounded=0;exitX=0.955;exitY=0.792;exitDx=0;exitDy=0;exitPerimeter=0;" edge="1" parent="1" source="xX9duPSloRxx_vfMI_G7-22">
          <mxGeometry width="50" height="50" relative="1" as="geometry">
            <mxPoint x="570" y="120" as="sourcePoint" />
            <mxPoint x="630" y="180" as="targetPoint" />
          </mxGeometry>
        </mxCell>
        <mxCell id="xX9duPSloRxx_vfMI_G7-29" value="" style="edgeStyle=entityRelationEdgeStyle;fontSize=12;html=1;endArrow=ERoneToMany;rounded=0;exitX=1;exitY=0.75;exitDx=0;exitDy=0;entryX=0;entryY=0.5;entryDx=0;entryDy=0;" edge="1" parent="1" source="xX9duPSloRxx_vfMI_G7-1" target="xX9duPSloRxx_vfMI_G7-17">
          <mxGeometry width="100" height="100" relative="1" as="geometry">
            <mxPoint x="310" y="425" as="sourcePoint" />
            <mxPoint x="660" y="270" as="targetPoint" />
            <Array as="points">
              <mxPoint x="330" y="470" />
              <mxPoint x="370" y="425" />
              <mxPoint x="510" y="380" />
              <mxPoint x="510" y="380" />
              <mxPoint x="510" y="380" />
              <mxPoint x="510" y="400" />
            </Array>
          </mxGeometry>
        </mxCell>
      </root>
    </mxGraphModel>
  </diagram>
  <diagram id="9TkjYmyFfeeifskoAGIm" name="Page-2">
    <mxGraphModel dx="1050" dy="522" grid="1" gridSize="10" guides="1" tooltips="1" connect="1" arrows="1" fold="1" page="1" pageScale="1" pageWidth="850" pageHeight="1100" math="0" shadow="0">
      <root>
        <mxCell id="0" />
        <mxCell id="1" parent="0" />
      </root>
    </mxGraphModel>
  </diagram>
</mxfile>
